<?xml version="1.0" standalone="no"?>
<!DOCTYPE svg PUBLIC "-//W3C//DTD SVG 20010904//EN"
 "http://www.w3.org/TR/2001/REC-SVG-20010904/DTD/svg10.dtd">
<svg version="1.0" xmlns="http://www.w3.org/2000/svg"
 width="500.000000pt" height="500.000000pt" viewBox="0 0 500.000000 500.000000"
 preserveAspectRatio="xMidYMid meet">

<g transform="translate(0.000000,500.000000) scale(0.100000,-0.100000)"
fill="#000000" stroke="none">
<path d="M2360 3783 c-139 -14 -324 -67 -439 -127 l-64 -33 57 -11 c53 -11 62
-10 119 14 125 53 240 76 407 81 176 5 289 -12 443 -68 222 -80 447 -258 569
-451 44 -69 57 -76 95 -55 l22 12 -27 47 c-43 74 -150 204 -216 265 -137 124
-336 238 -496 283 -139 39 -335 57 -470 43z"/>
<path d="M1590 3540 c-47 -10 -139 -39 -204 -64 -107 -42 -121 -45 -136 -31
-26 23 -38 18 -60 -25 -15 -30 -42 -54 -103 -93 -271 -176 -523 -458 -656
-738 -77 -161 -100 -283 -67 -348 22 -41 96 -70 96 -36 0 8 -13 21 -29 29 -35
19 -42 50 -30 129 35 217 298 597 554 798 83 66 184 134 189 128 3 -2 -7 -58
-20 -124 -55 -269 -104 -749 -104 -1017 l0 -76 -47 -17 c-137 -49 -186 -87
-199 -153 -14 -70 75 -142 178 -142 26 0 50 -4 53 -10 3 -5 9 -32 12 -59 6
-51 32 -89 52 -76 6 3 11 37 11 74 l0 68 84 21 c131 33 275 101 450 211 28 18
65 9 106 -26 26 -21 33 -24 41 -12 5 8 9 17 9 20 0 12 -27 39 -53 52 -33 17
-36 12 73 102 130 107 307 330 383 480 38 77 84 215 101 305 41 212 -3 396
-122 515 -54 54 -164 111 -241 125 -81 15 -226 11 -321 -10z m311 -54 c222
-47 332 -213 316 -474 -14 -233 -130 -477 -334 -704 -86 -96 -235 -225 -270
-234 -13 -4 -51 -1 -85 5 -93 17 -304 24 -373 13 -33 -6 -63 -7 -66 -4 -3 4
-2 54 2 112 4 58 13 185 19 283 6 99 20 247 30 330 20 155 83 508 95 527 25
40 286 128 455 154 58 8 149 5 211 -8z m-438 -1448 c42 -6 77 -15 77 -19 0
-31 -377 -199 -446 -199 -11 0 -14 21 -14 99 0 59 4 102 11 106 38 24 252 31
372 13z m-453 -129 l0 -102 -54 6 c-63 6 -111 28 -127 58 -9 17 -7 27 8 48 19
26 133 91 160 91 10 0 13 -23 13 -101z"/>
<path d="M1620 3420 c-89 -21 -261 -279 -333 -501 -70 -212 -75 -499 -13 -713
11 -39 14 -41 54 -44 l42 -3 -11 28 c-41 108 -64 337 -49 477 30 260 142 501
323 689 79 83 79 88 -13 67z"/>
<path d="M4056 3349 c-8 -12 -21 -47 -27 -77 -7 -30 -17 -55 -23 -57 -6 -2
-84 -24 -174 -49 -232 -65 -360 -128 -336 -167 9 -16 49 -10 65 9 9 11 51 33
93 51 80 33 334 106 342 98 3 -2 -2 -83 -11 -178 -8 -96 -15 -224 -15 -286 l0
-111 -52 -46 c-106 -93 -207 -121 -247 -70 -32 41 -27 71 15 89 49 20 85 50
111 93 28 45 29 64 5 85 -25 22 -50 21 -91 -4 -63 -38 -106 -106 -114 -179 -6
-51 -132 -322 -167 -358 -29 -31 -38 -20 -52 62 -18 110 20 458 74 661 31 119
33 144 14 151 -27 10 -45 -14 -70 -95 -25 -80 -66 -300 -66 -357 0 -29 -7 -38
-64 -78 -35 -26 -66 -46 -69 -46 -2 0 -7 12 -10 28 -14 65 -60 85 -106 46 -39
-32 -58 -70 -102 -196 -18 -54 -37 -98 -42 -98 -17 0 17 360 44 463 10 38 0
67 -23 67 -15 0 -46 -81 -59 -155 -11 -65 -16 -76 -82 -154 -73 -87 -148 -144
-182 -139 -51 7 -69 134 -43 288 10 59 10 73 -1 80 -31 19 -62 -20 -75 -92
l-7 -38 -67 0 c-49 0 -76 -5 -99 -20 l-32 -19 -3 77 c-2 62 -6 77 -20 80 -29
6 -42 -61 -42 -233 -1 -148 0 -160 18 -163 25 -5 36 14 36 63 0 42 30 117 57
147 12 14 32 18 85 18 l68 0 0 -47 c0 -70 17 -120 54 -160 25 -28 39 -35 69
-35 52 0 114 40 183 117 l59 66 0 -188 c0 -268 29 -473 61 -440 5 4 9 61 9
125 1 64 7 129 13 144 6 15 29 36 50 47 56 29 115 100 148 179 35 84 36 86
105 133 l57 38 4 -147 c3 -111 9 -157 22 -190 49 -115 114 -63 216 171 24 53
46 97 50 97 3 0 17 -11 30 -25 52 -56 150 -39 260 44 l65 49 5 -234 c4 -204 7
-235 22 -251 13 -12 21 -14 28 -7 7 7 12 155 14 430 2 317 7 455 20 569 9 82
18 151 20 152 1 2 70 15 152 29 100 17 171 24 217 21 76 -5 93 6 56 36 -21 17
-34 19 -104 13 -44 -3 -129 -15 -190 -25 -112 -19 -142 -18 -111 5 13 9 16 24
14 60 -3 56 -26 70 -52 33z m-286 -663 c0 -16 -51 -71 -81 -86 -34 -19 -22 10
25 56 47 47 56 52 56 30z m-632 -195 c3 -36 -1 -46 -29 -72 -54 -51 -89 -73
-89 -56 0 42 82 181 103 174 7 -2 13 -23 15 -46z m-48 -172 c-16 -29 -90 -109
-101 -109 -25 0 -3 40 47 87 58 55 75 62 54 22z"/>
<path d="M2594 2964 c-13 -19 -15 -32 -8 -52 17 -49 84 -37 84 15 0 61 -46 84
-76 37z"/>
<path d="M3603 2954 c-19 -25 -19 -27 6 -113 l24 -88 33 21 c36 24 36 24 2
139 -12 37 -26 67 -34 67 -7 0 -21 -12 -31 -26z"/>
<path d="M3613 2251 c-47 -196 -145 -370 -298 -526 -151 -155 -312 -252 -509
-310 -138 -39 -215 -48 -381 -42 -120 4 -169 11 -245 32 -243 67 -455 202
-605 385 -59 72 -58 72 -104 41 -18 -12 11 -53 118 -164 216 -224 505 -355
826 -373 127 -8 246 5 383 41 430 114 779 464 888 894 13 52 23 95 22 97 -2 1
-19 5 -38 9 l-35 6 -22 -90z"/>
</g>
</svg>
